# xmcd
#
# Track frame offsets: 
#        150
#        20030
#        35260
#        53625
#        70685
#        89080
#        105525
#        127095
#        144632
#        165375
#        186490
#        197132
#        215100
#        238022
#        254822
#        273525
#        297625
#        314455
#
# Disc length: 4477 seconds
#
# Revision: 14
# Processed by: cddbd v1.5.2PL0 Copyright (c) Steve Scherf et al.
# Submitted via: ExactAudioCopy v1.0b1
#
DISCID=27117b12
DTITLE=Giuliano Carmignola / Vivaldi - Late violin concertos
DYEAR=2000
DGENRE=Classical
TTITLE0=Vivaldi - Concerto for Violin, strings and B. c. in C Major RV
TTITLE0= 177 - Allegro ma poco
TTITLE1=Vivaldi - Concerto for Violin, strings and B. c. in C Major RV
TTITLE1= 177 - Largo
TTITLE2=Vivaldi - Concerto for Violin, strings and B. c. in C Major RV
TTITLE2= 177 - Allegro
TTITLE3=Vivaldi - Concerto for Violin, strings and B. c. in D Major RV
TTITLE3= 222 - Allegro
TTITLE4=Vivaldi - Concerto for Violin, strings and B. c. in D Major RV
TTITLE4= 222 - Andante
TTITLE5=Vivaldi - Concerto for Violin, strings and B. c. in D Major RV
TTITLE5= 222 - Allegro
TTITLE6=Vivaldi - Concerto for Violin, strings and B. c. in e minor RV
TTITLE6= 273 - Allegro non molto
TTITLE7=Vivaldi - Concerto for Violin, strings and B. c. in e minor RV
TTITLE7= 273 - Largo
TTITLE8=Vivaldi - Concerto for Violin, strings and B. c. in e minor RV
TTITLE8= 273 - Allegro
TTITLE9=Vivaldi - Concerto for Violin, strings and B. c. in F Major RV
TTITLE9= 295 - Allegro
TTITLE10=Vivaldi - Concerto for Violin, strings and B. c. in F Major R
TTITLE10=V 295 - Larghetto
TTITLE11=Vivaldi - Concerto for Violin, strings and B. c. in F Major R
TTITLE11=V 295 - Allegro
TTITLE12=Vivaldi - Concerto for Violin, strings and B. c. in B flat Ma
TTITLE12=jor RV 375 - Allegro non molto
TTITLE13=Vivaldi - Concerto for Violin, strings and B. c. in B flat Ma
TTITLE13=jor RV 375 - Largo
TTITLE14=Vivaldi - Concerto for Violin, strings and B. c. in B flat Ma
TTITLE14=jor RV 375 - Allegro
TTITLE15=Vivaldi - Concerto for Violin, strings and B. c. in C Major R
TTITLE15=V 191 - Allegro ma poco
TTITLE16=Vivaldi - Concerto for Violin, strings and B. c. in C Major R
TTITLE16=V 191 - Largo
TTITLE17=Vivaldi - Concerto for Violin, strings and B. c. in C Major R
TTITLE17=V 191 - Allegro ma poco
EXTD=
EXTT0=
EXTT1=
EXTT2=
EXTT3=
EXTT4=
EXTT5=
EXTT6=
EXTT7=
EXTT8=
EXTT9=
EXTT10=
EXTT11=
EXTT12=
EXTT13=
EXTT14=
EXTT15=
EXTT16=
EXTT17=
PLAYORDER=
.
